<svg xmlns="http://www.w3.org/2000/svg" viewBox="0 0 27 27"><path d="M1 1h7v7h-7zM12 1h1v2h-1zM14 1h1v1h-1zM17 1h1v3h-1v-1h-1v1h-1v-2h2zM19 1h7v7h-7zM2 2v5h5v-5zM10 2h1v1h1v2h-2v1h2v-1h1v1h1v-1h-1v-2h1v1h1v2h2v-1h1v3h-1v-1h-1v2h-1v-2h-1v1h-1v-1h-1v1h-1v-1h-1v2h-1v-6h1zM20 2v5h5v-5zM3 3h3v3h-3zM21 3h3v3h-3zM12 8h1v1h-1zM1 9h1v1h-1zM3 9h5v1h-4v2h-1zM11 9h1v1h-1zM13 9h1v1h1v1h2v1h-2v1h-1v1h-2v-1h-1v-1h2v-1h-1v-1h1zM16 9h1v1h-1zM19 9h5v1h-3v1h-1v-1h-1zM8 10h1v2h-2v1h2v-1h1v3h-1v-1h-3v4h-3v-4h1v2h1v-3h1v-1h-1v-1h3zM17 10h2v1h-2zM24 10h1v1h1v3h-1v1h1v2h-1v-1h-1v-2h-1v-1h2v-1h-1zM10 11h1v1h-1zM19 11h1v3h-1v1h1v-1h1v1h1v-1h1v2h-1v2h1v1h-1v1h1v1h-1v1h1v-1h1v1h1v-1h1v5h-8v-1h-1v-1h5v-1h-1v-1h-1v1h-3v1h-1v-2h-1v-1h2v-4h1v-1h-1v1h-2v-1h1v-1h2v-2h-1v-1h2zM21 11h2v1h-1v2h-1zM2 12h1v2h-1zM15 13h1v1h-1zM1 14h1v4h-1zM11 14h1v1h-1zM7 15h2v1h1v-1h1v2h-2v1h-2v-1h1v-1h-1zM12 15h2v1h-1v2h-1zM23 17h1v1h-1zM9 18h2v1h-2zM13 18h3v2h-1v1h-1v1h-1v-2h1v-1h-1zM18 18v3h3v-3zM1 19h7v7h-7zM19 19h1v1h-1zM23 19h3v1h-1v1h-1v-1h-1zM2 20v5h5v-5zM9 20h1v1h1v-1h1v2h-1v1h-1v1h-1zM3 21h3v3h-3zM11 23h3v1h-1v2h-1v-1h-1zM24 23v1h-1v1h2v-2zM15 24h1v1h-1zM9 25h1v1h-1z"/></svg>