<svg xmlns="http://www.w3.org/2000/svg" viewBox="0 0 31 31"><path d="M1 1h7v7h-7zM10 1h4v4h-1v-1h-1v-1h-2zM16 1h6v1h-2v1h-1v-1h-3zM23 1h7v7h-7zM2 2v5h5v-5zM24 2v5h5v-5zM3 3h3v3h-3zM9 3h1v1h2v2h2v-1h3v1h1v-1h-1v-2h1v1h1v1h1v-1h1v1h1v3h-1v-2h-2v1h-1v1h-1v-1h-1v1h-1v-1h-1v1h1v1h-2v-2h-1v1h-1v-1h-1v2h-1zM15 3h1v1h-1zM25 3h3v3h-3zM10 5v1h1v-1zM19 7h1v1h1v1h-2zM16 8h1v2h1v1h-2v-1h-1v-1h1zM1 9h1v2h1v1h-2zM3 9h5v1h-3v1h-1v-1h-1zM11 9h2v1h1v2h-1v-1h-1v-1h-1zM18 9h1v1h-1zM23 9h5v1h-2v1h-2v2h-3v1h3v-1h1v1h1v1h2v1h-2v1h-1v-1h-1v-1h-2v1h-1v-1h-2v1h-1v1h-1v-1h-2v1h-1v2h-1v-1h-1v-1h1v-1h-1v-4h1v1h1v1h3v1h1v-2h2v-1h3v-1h-4v-1h4zM9 10h1v2h-1zM29 10h1v1h-1zM7 11h1v1h-1zM11 11h1v1h-1zM18 11h1v1h-1zM4 12h2v1h-2zM10 12h1v3h-2v1h-2v1h-1v-2h-1v3h-2v1h-1v3h-1v-4h1v-2h-1v-1h2v-2h1v1h3v1h1v-1h-1v-1h2v1h1zM15 12h1v1h-1zM17 12h1v1h-1zM25 12h2v1h1v1h-2v-1h-1zM28 12h1v1h-1zM1 13h1v1h-1zM29 14h1v1h-1zM10 16h2v1h-2zM19 16h1v1h-1zM23 16h1v1h-1zM28 16h1v1h-1zM7 17h1v1h-1zM15 17h1v1h-1zM18 17h1v1h7v4h1v-1h1v-1h1v1h1v2h-2v1h-2v2h-4v1h-1v-2h-1v-1h-2v-1h2v-1h1v-1h3v-1h-2v-1h-2v1h1v1h-2v-1h-1v1h-1v-1h-1v-1h2zM26 17h2v3h-1v-2h-1zM5 18h2v1h1v-1h1v1h1v1h4v1h-2v1h-1v1h-2v-3h-2v1h1v1h-5v-1h1v-2h1zM10 18h2v1h-2zM29 18h1v1h-1zM15 20h1v1h-1zM16 21h1v1h-1zM18 21h1v1h-1zM12 22h4v1h1v1h-2v1h-1v1h-1v-1h-1v-1h2v-1h-2zM17 22h1v1h-1zM22 22v3h3v-3zM1 23h7v7h-7zM11 23h1v1h-1zM23 23h1v1h-1zM2 24v5h5v-5zM9 24h1v1h1v1h2v1h1v1h-2v-1h-1v1h-2zM3 25h3v3h-3zM15 25h5v2h-1v1h-1v1h-1v-1h-1v-1h1v-1h-2zM27 25h2v1h1v1h-1v2h-1v-1h-1v1h-2v-1h-2v-1h3v-1h1zM14 26h1v1h-1zM11 28h1v1h-1zM15 28h1v1h-1zM19 28h1v1h-1zM21 28h1v1h-1zM9 29h1v1h-1zM14 29h1v1h-1zM18 29h1v1h-1zM20 29h1v1h-1zM22 29h1v1h-1zM24 29h1v1h-1zM27 29h1v1h-1z"/></svg>